<?xml version="1.0" encoding="UTF-8"?>
<svg version="1.1" xmlns="http://www.w3.org/2000/svg" width="146" height="146">
<path d="M0 0 C48.18 0 96.36 0 146 0 C146 48.18 146 96.36 146 146 C97.82 146 49.64 146 0 146 C0 97.82 0 49.64 0 0 Z " fill="#F9F9F8" transform="translate(0,0)"/>
<path d="M0 0 C48.18 0 96.36 0 146 0 C146 48.18 146 96.36 146 146 C97.82 146 49.64 146 0 146 C0 97.82 0 49.64 0 0 Z M66.5 11.5625 C62.68390648 13.95107106 58.84318623 16.26034085 54.9375 18.5 C51.43761899 20.52718076 48.05800477 22.61244522 44.75 24.9375 C40.06451816 28.14110184 35.04370157 30.57565778 29.93457031 33.02124023 C28.65340621 33.64006727 27.3815839 34.27875552 26.12174988 34.93992615 C24 36 24 36 21.89027405 36.76699829 C19.34069753 37.89806202 17.83401546 38.87758939 16 41 C14.84355179 45.96072872 15.06860925 50.87184508 15.21875 55.92578125 C15.23368102 57.39834007 15.24506399 58.87093878 15.25305176 60.34355164 C15.28352102 64.20963297 15.36202978 68.07328909 15.45068359 71.93841553 C15.53269317 75.88634429 15.5690949 79.83466713 15.609375 83.78320312 C15.69503705 91.52323819 15.83147097 99.26127863 16 107 C16.75273193 107.40992187 17.50546387 107.81984375 18.28100586 108.2421875 C19.26979736 108.78101562 20.25858887 109.31984375 21.27734375 109.875 C22.25695068 110.40867187 23.23655762 110.94234375 24.24584961 111.4921875 C28.28806529 113.70517607 32.29840897 115.9551634 36.2265625 118.3671875 C40.75076681 121.1391603 45.28843943 123.67978227 50.0625 126 C53.8134465 127.83464989 57.30527605 129.76527516 60.75 132.125 C67.9251808 137.40686364 67.9251808 137.40686364 76.375 138.6875 C80.38695265 136.81986687 83.66692066 134.50010223 87.22265625 131.88671875 C91.87262337 128.72788032 96.91993778 126.38291578 102 124 C102 123.34 102 122.68 102 122 C103.32 122 104.64 122 106 122 C106 121.34 106 120.68 106 120 C107.0209375 119.9071875 107.0209375 119.9071875 108.0625 119.8125 C111.42504745 118.88243368 113.35822715 117.40892196 116.10546875 115.33203125 C118.6071118 113.57314407 121.24452881 112.28783504 124.0078125 110.9921875 C124.66523437 110.66476563 125.32265625 110.33734375 126 110 C127.27666283 109.42183281 127.27666283 109.42183281 128.57911682 108.83198547 C131.26945977 107.20033219 131.26945977 107.20033219 131.66856384 104.17399597 C131.68762283 103.02627213 131.70668182 101.87854828 131.72631836 100.69604492 C131.75821762 99.39426804 131.79011688 98.09249115 131.82298279 96.75126648 C131.83062758 95.32767667 131.83619664 93.90407442 131.83984375 92.48046875 C131.85591391 91.0193856 131.87273484 89.55831052 131.89027405 88.09724426 C131.92021977 85.03298307 131.92947545 81.9694265 131.92651367 78.9050293 C131.92600611 74.98592859 131.99417524 71.07137056 132.08037472 67.15334606 C132.13610986 64.13417536 132.14610614 61.11609272 132.14346504 58.09646034 C132.14934932 56.65268637 132.17138025 55.20888141 132.21012688 53.76561546 C132.31787725 49.33641739 132.26502874 45.26218714 131 41 C128.02233305 37.99405179 124.88655948 36.5585864 121 35 C119.47946196 34.16633845 117.96814449 33.31530546 116.47265625 32.4375 C115.00360285 31.6231957 113.53353783 30.81071393 112.0625 30 C110.88602905 29.34837891 110.88602905 29.34837891 109.68579102 28.68359375 C105.61555564 26.43192055 101.53347599 24.204562 97.4375 22 C94.13608308 20.22073169 90.90487842 18.35256816 87.6953125 16.4140625 C86.93162354 15.95515625 86.16793457 15.49625 85.38110352 15.0234375 C83.86123988 14.10675024 82.34589754 13.18251507 80.83569336 12.25 C80.13839111 11.82976563 79.44108887 11.40953125 78.72265625 10.9765625 C78.10140869 10.59580566 77.48016113 10.21504883 76.84008789 9.82275391 C72.65675321 7.95226991 70.03598084 9.30536556 66.5 11.5625 Z " fill="#FCFCFC" transform="translate(0,0)"/>
<path d="M0 0 C3.70070598 1.44827125 7.14201455 3.08099975 10.625 5 C11.56601562 5.515625 12.50703125 6.03125 13.4765625 6.5625 C15.36085409 7.6359045 17.19562992 8.79708661 19 10 C19 10.66 19 11.32 19 12 C19.99 12.33 20.98 12.66 22 13 C22.87112401 16.79125458 23.15995903 20.36798345 23.24609375 24.25390625 C23.27896484 25.43791016 23.31183594 26.62191406 23.34570312 27.84179688 C23.40699506 30.3260764 23.46427461 32.81045811 23.51757812 35.29492188 C23.56881836 37.06899414 23.56881836 37.06899414 23.62109375 38.87890625 C23.6461499 39.9572876 23.67120605 41.03566895 23.69702148 42.14672852 C23.99525276 44.9552933 24.4472443 46.65860876 26 49 C28.67790463 49.83886169 31.1737941 49.81766414 34 50 C34 50.99 34 51.98 34 53 C34.70125 53.26554687 35.4025 53.53109375 36.125 53.8046875 C40.24648526 55.5182398 44.12610577 57.6590717 48.0625 59.7578125 C51.06657242 61.02815164 52.7931987 61.24261984 56 61 C57.32 61 58.64 61 60 61 C60.433125 60.566875 60.86625 60.13375 61.3125 59.6875 C63.78660659 57.21339341 66.79841136 56.34803732 70 55 C71.34631825 54.01755155 72.68441297 53.02323436 74 52 C74.66 52 75.32 52 76 52 C76 51.34 76 50.68 76 50 C76.99 50 77.98 50 79 50 C79.33 48.68 79.66 47.36 80 46 C80.99 46 81.98 46 83 46 C83.03758423 44.56164795 83.03758423 44.56164795 83.07592773 43.09423828 C83.1699862 39.54201523 83.27021058 35.98998844 83.37231445 32.43798828 C83.41566926 30.89962347 83.45734395 29.36121037 83.49731445 27.82275391 C83.55500398 25.6134586 83.61870179 23.40440652 83.68359375 21.1953125 C83.70030624 20.50567413 83.71701874 19.81603577 83.73423767 19.10549927 C83.88612829 14.22774341 83.88612829 14.22774341 85 12 C84.01 11.505 84.01 11.505 83 11 C83.82113281 10.76539063 84.64226562 10.53078125 85.48828125 10.2890625 C90.45403705 8.46626004 94.80031231 5.78610279 99.34179688 3.1015625 C100.36950195 2.50601563 100.36950195 2.50601563 101.41796875 1.8984375 C102.03438232 1.53411621 102.6507959 1.16979492 103.28588867 0.79443359 C105 0 105 0 108 0 C108 19.47 108 38.94 108 59 C100.575 62.96 100.575 62.96 93 67 C89.71442964 68.85589667 86.4427788 70.718711 83.1875 72.625 C82.38489746 73.09228516 81.58229492 73.55957031 80.75537109 74.04101562 C71.00578085 79.70615163 71.00578085 79.70615163 61.4296875 85.65625 C59 87 59 87 56 87 C56 79.41 56 71.82 56 64 C54.68 64 53.36 64 52 64 C52 71.92 52 79.84 52 88 C45.07 84.535 45.07 84.535 38 81 C38 80.34 38 79.68 38 79 C37.30519531 78.9071875 36.61039063 78.814375 35.89453125 78.71875 C32.38039368 77.84614364 29.80370604 76.34555563 26.6875 74.5 C25.45626146 73.77643721 24.22446691 73.05381993 22.9921875 72.33203125 C22.34733398 71.95256348 21.70248047 71.5730957 21.03808594 71.18212891 C18.91733661 69.95205365 16.77931291 68.7587408 14.6328125 67.57421875 C13.91262939 67.17589844 13.19244629 66.77757813 12.45043945 66.3671875 C11.04977062 65.59431645 9.64732147 64.82466108 8.24291992 64.05859375 C1.94924634 60.56483353 1.94924634 60.56483353 0 58 C-0.36076355 55.43733215 -0.36076355 55.43733215 -0.34057617 52.33520508 C-0.34034958 51.17422806 -0.34012299 50.01325104 -0.33988953 48.8170929 C-0.32440567 47.56389755 -0.30892181 46.31070221 -0.29296875 45.01953125 C-0.28872391 43.73640549 -0.28447906 42.45327972 -0.28010559 41.13127136 C-0.26866162 37.72313862 -0.23919896 34.3153906 -0.20599365 30.90740967 C-0.17528272 27.42856043 -0.16159811 23.94964891 -0.14648438 20.47070312 C-0.11432835 13.64697757 -0.06313776 6.82350726 0 0 Z " fill="#FAFAF9" transform="translate(20,46)"/>
<path d="M0 0 C2.58895681 1.36607566 5.02531244 2.76578336 7.5 4.3125 C14.33888199 8.46579363 21.27190356 12.38626154 28.3125 16.1875 C46.75702536 26.17135024 46.75702536 26.17135024 54 31 C54.42805481 33.70574951 54.42805481 33.70574951 54.49926758 37.19042969 C54.5313179 38.4922821 54.56336823 39.79413452 54.59638977 41.13543701 C54.61425539 42.56422809 54.63025629 43.99304353 54.64453125 45.421875 C54.65912667 46.5001141 54.65912667 46.5001141 54.67401695 47.6001358 C54.72487917 51.40661601 54.75762437 55.21275903 54.77563477 59.01953125 C54.7976428 62.94629264 54.88001625 66.86931171 54.97675037 70.79484177 C55.04028643 73.81818803 55.05894042 76.84064421 55.065588 79.86460114 C55.07648825 81.3112333 55.10410416 82.75784274 55.14899635 84.20381927 C55.27739647 88.64049163 55.2454006 92.72352879 54 97 C51.02869015 100.0200632 47.89038633 101.43984832 44 103 C42.34345431 103.89716303 40.69569516 104.81100121 39.0625 105.75 C38.35222656 106.13671875 37.64195313 106.5234375 36.91015625 106.921875 C35.22788102 107.87138004 33.60730276 108.92846483 32 110 C31.01 110 30.02 110 29 110 C29 110.66 29 111.32 29 112 C27.68 112 26.36 112 25 112 C24.505 113.485 24.505 113.485 24 115 C21.4318692 116.42771655 18.91038812 117.70800725 16.25 118.9375 C11.34093999 121.22868898 7.1632314 123.46461678 3 127 C-0.0625 128.625 -0.0625 128.625 -4 129 C-10.41695037 126.64797038 -15.71346841 123.27123745 -21 119 C-22.81220202 117.93322228 -22.81220202 117.93322228 -24.625 117.125 C-32.42082277 113.37362663 -39.90361833 109.10172025 -47.29052734 104.60595703 C-50.0985005 102.94161684 -52.94305272 101.36822443 -55.8125 99.8125 C-56.78832031 99.28269531 -57.76414062 98.75289063 -58.76953125 98.20703125 C-59.50558594 97.80871094 -60.24164063 97.41039063 -61 97 C-61.39557235 88.56840461 -61.69670349 80.14073262 -61.88080692 71.70212746 C-61.96922406 67.78227838 -62.08881717 63.86880983 -62.2824707 59.95263672 C-63.49860037 34.70950101 -63.49860037 34.70950101 -59.40545654 28.63269043 C-55.5307882 25.06852478 -51.21240333 23.22953557 -46.22259521 21.71696472 C-39.93233063 19.68785129 -34.3394067 16.07839121 -28.875 12.4375 C-24.69933699 9.66452645 -20.4960962 7.22367901 -16 5 C-13.49965274 3.39916791 -11.02543933 1.76712263 -8.5625 0.109375 C-5.14443799 -1.37039575 -3.56145321 -1.06226513 0 0 Z M-10.5 5.68359375 C-12.06911133 6.57510132 -12.06911133 6.57510132 -13.66992188 7.48461914 C-14.76884766 8.12906982 -15.86777344 8.77352051 -17 9.4375 C-18.12470703 10.08259521 -19.24941406 10.72769043 -20.40820312 11.39233398 C-27.14384733 15.27351982 -33.82161498 19.23930946 -40.39453125 23.390625 C-43.61604011 25.38052253 -46.92598045 27.16418662 -50.29296875 28.89453125 C-52.31637749 30.04461858 -52.31637749 30.04461858 -54 33 C-51.98553185 34.30258843 -49.96431387 35.5918692 -47.9375 36.875 C-47.37611328 37.23980469 -46.81472656 37.60460938 -46.23632812 37.98046875 C-42.24331902 40.49036018 -38.5866361 41.88985878 -34 43 C-34.99 43.99 -35.98 44.98 -37 46 C-47.68150445 40.20533212 -47.68150445 40.20533212 -52.0625 37.625 C-54.73217597 35.8386462 -54.73217597 35.8386462 -57 36 C-57.06949335 43.51037714 -57.12280778 51.02072096 -57.15543652 58.53134632 C-57.17109635 62.01881576 -57.1923398 65.50606532 -57.22631836 68.9934082 C-57.2651328 73.00213743 -57.2797065 77.01063548 -57.29296875 81.01953125 C-57.30845261 82.27272659 -57.32393646 83.52592194 -57.33988953 84.8170929 C-57.34011612 85.97806992 -57.34034271 87.13904694 -57.34057617 88.33520508 C-57.34723801 89.35890701 -57.35389984 90.38260895 -57.36076355 91.43733215 C-56.94487558 94.39157389 -56.33013491 95.21628197 -54 97 C-52.22271111 98.165452 -52.22271111 98.165452 -50.26171875 99.19921875 C-49.53025635 99.60027832 -48.79879395 100.00133789 -48.04516602 100.41455078 C-46.87812134 101.04466064 -46.87812134 101.04466064 -45.6875 101.6875 C-44.06458265 102.57326388 -42.44219314 103.45999553 -40.8203125 104.34765625 C-39.60649902 105.01112061 -39.60649902 105.01112061 -38.36816406 105.68798828 C-36.16326545 106.90954757 -33.98021333 108.1606129 -31.8046875 109.43359375 C-31.16958252 109.80460205 -30.53447754 110.17561035 -29.88012695 110.55786133 C-28.15867751 111.56853366 -26.44056436 112.58488238 -24.72265625 113.6015625 C-22.06537052 115.22844328 -22.06537052 115.22844328 -19 115 C-19 115.66 -19 116.32 -19 117 C-14.38 119.31 -9.76 121.62 -5 124 C-5 116.08 -5 108.16 -5 100 C-3.68 100 -2.36 100 -1 100 C-1 107.59 -1 115.18 -1 123 C3.27628969 121.93092758 6.60236046 120.11547695 10.375 117.9375 C11.08253418 117.534104 11.79006836 117.13070801 12.51904297 116.71508789 C14.68179415 115.48092237 16.8409403 114.24060891 19 113 C20.22362918 112.3015064 21.44756815 111.60355511 22.671875 110.90625 C27.40064986 108.21020641 32.12324582 105.50345945 36.84375 102.79296875 C37.79290283 102.24878296 37.79290283 102.24878296 38.76123047 101.69360352 C40.52100629 100.68462542 42.28005734 99.67438354 44.0390625 98.6640625 C46.32492832 97.37939385 48.65469727 96.17265136 51 95 C51 75.53 51 56.06 51 36 C46.92266819 36.81546636 45.12933512 37.27314905 41.79296875 39.28515625 C41.04208984 39.73310547 40.29121094 40.18105469 39.51757812 40.64257812 C38.74865234 41.11115234 37.97972656 41.57972656 37.1875 42.0625 C36.39923828 42.53494141 35.61097656 43.00738281 34.79882812 43.49414062 C32.86187392 44.65631315 30.92921705 45.82504417 29 47 C29 46.01 29 45.02 29 44 C30.10859375 43.38511719 31.2171875 42.77023438 32.359375 42.13671875 C33.82300189 41.32046529 35.28653884 40.50405056 36.75 39.6875 C37.47960937 39.28337891 38.20921875 38.87925781 38.9609375 38.46289062 C39.66992188 38.06650391 40.37890625 37.67011719 41.109375 37.26171875 C41.75874023 36.90037842 42.40810547 36.53903809 43.07714844 36.16674805 C45.16089447 34.90237244 47.07295847 33.49027044 49 32 C48.38181396 31.65332275 47.76362793 31.30664551 47.12670898 30.94946289 C26.41058089 19.319592 26.41058089 19.319592 17.75 14.0625 C4.27749607 4.33169438 4.27749607 4.33169438 -10.5 5.68359375 Z " fill="#555454" transform="translate(77,10)"/>
<path d="M0 0 C2.475 0.99 2.475 0.99 5 2 C5 2.66 5 3.32 5 4 C5.556875 4.103125 6.11375 4.20625 6.6875 4.3125 C9.44998593 5.1337796 11.54311148 6.50189725 14 8 C15.65369357 8.69822617 17.31727014 9.37498605 19 10 C19 10.66 19 11.32 19 12 C19.5775 12.12375 20.155 12.2475 20.75 12.375 C23 13 23 13 27 15 C27 24.57 27 34.14 27 44 C21.32519512 43.05419919 20.54255625 42.84475625 16.69921875 39.32421875 C14.1598645 37.34527371 11.339292 36.31625496 8.34375 35.1875 C1.73390349 31.8385111 1.73390349 31.8385111 0 29 C-0.75547512 24.05851297 -0.56398491 19.1658856 -0.375 14.1875 C-0.34488122 12.81320906 -0.31750872 11.43885501 -0.29296875 10.06445312 C-0.22230722 6.70803031 -0.12367705 3.35481935 0 0 Z " fill="#FBD541" transform="translate(45,60)"/>
<path d="M0 0 C0.86625 0.309375 1.7325 0.61875 2.625 0.9375 C2.625 1.9275 2.625 2.9175 2.625 3.9375 C3.69814453 4.33582031 3.69814453 4.33582031 4.79296875 4.7421875 C7.69404319 5.96664099 10.25515864 7.41733063 12.9375 9.0625 C13.82050781 9.60132813 14.70351562 10.14015625 15.61328125 10.6953125 C16.27714844 11.10523438 16.94101563 11.51515625 17.625 11.9375 C15.60497296 14.96754055 14.77085478 15.62747515 11.6875 17.25 C10.88957031 17.67410156 10.09164062 18.09820312 9.26953125 18.53515625 C8.39683594 18.99792969 7.52414063 19.46070312 6.625 19.9375 C5.68011719 20.47246094 4.73523438 21.00742188 3.76171875 21.55859375 C2.80910156 22.09613281 1.85648438 22.63367188 0.875 23.1875 C-0.00671875 23.68765625 -0.8884375 24.1878125 -1.796875 24.703125 C-5.71662384 26.57985323 -8.20613022 27.32712326 -12.375 25.9375 C-12.80425781 25.48761719 -13.23351562 25.03773437 -13.67578125 24.57421875 C-16.0235881 22.31276801 -18.63618667 21.16595806 -21.5625 19.75 C-22.64917969 19.22019531 -23.73585938 18.69039062 -24.85546875 18.14453125 C-25.68691406 17.74621094 -26.51835938 17.34789063 -27.375 16.9375 C-27.375 16.2775 -27.375 15.6175 -27.375 14.9375 C-29.355 14.6075 -31.335 14.2775 -33.375 13.9375 C-33.375 13.2775 -33.375 12.6175 -33.375 11.9375 C-30.1750997 8.92045115 -27.75962134 7.43859958 -23.375 6.9375 C-23.375 6.2775 -23.375 5.6175 -23.375 4.9375 C-22.78332031 4.68355469 -22.19164062 4.42960937 -21.58203125 4.16796875 C-16.47266888 1.95238742 -16.47266888 1.95238742 -11.6875 -0.875 C-7.60401736 -2.97192352 -4.17717052 -1.31503516 0 0 Z " fill="#FBD542" transform="translate(81.375,44.0625)"/>
<path d="M0 0 C0 9.9 0 19.8 0 30 C-6.9375 33.6875 -6.9375 33.6875 -9.19189453 34.88549805 C-13.62446826 37.24811631 -18.0161327 39.67029398 -22.36328125 42.1875 C-24 43 -24 43 -26 43 C-26 33.1 -26 23.2 -26 13 C-7.66666667 3 -7.66666667 3 -5 3 C-5 2.34 -5 1.68 -5 1 C-2 0 -2 0 0 0 Z " fill="#FBD542" transform="translate(102,61)"/>
<path d="M0 0 C4.43675683 0.69324326 9.14139947 1.61992865 13 4 C14 7.1875 14 7.1875 14 10 C14.99 10.33 15.98 10.66 17 11 C16.8816491 15.07530467 16.75739376 19.15038235 16.62768555 23.2253418 C16.58439782 24.61135983 16.54271836 25.99742906 16.50268555 27.38354492 C16.44483416 29.37691798 16.38070224 31.37010565 16.31640625 33.36328125 C16.27974854 34.56251221 16.24309082 35.76174316 16.20532227 36.99731445 C16 40 16 40 15 43 C14.01 43 13.02 43 12 43 C11.67 44.32 11.34 45.64 11 47 C10.01 47 9.02 47 8 47 C8 47.66 8 48.32 8 49 C6.20703125 50.4375 6.20703125 50.4375 3.8125 52 C3.03519531 52.515625 2.25789063 53.03125 1.45703125 53.5625 C-1 55 -1 55 -3.67578125 56.0625 C-6.14182432 56.88098611 -6.14182432 56.88098611 -8 59 C-10.125 59.625 -10.125 59.625 -12 60 C-12 59.34 -12 58.68 -12 58 C-12.87527344 58.22171875 -13.75054687 58.4434375 -14.65234375 58.671875 C-18.6640101 59.06508384 -20.14386626 58.29242698 -23.5625 56.25 C-24.47128906 55.71890625 -25.38007812 55.1878125 -26.31640625 54.640625 C-27.64478516 53.82851562 -27.64478516 53.82851562 -29 53 C-29.93714844 52.49984375 -30.87429687 51.9996875 -31.83984375 51.484375 C-32.90912109 50.74960938 -32.90912109 50.74960938 -34 50 C-34 49.01 -34 48.02 -34 47 C-35.258125 46.9175 -36.51625 46.835 -37.8125 46.75 C-40.6459451 46.56420032 -41.64679144 46.38078705 -43.60717773 44.26733398 C-45.23197556 41.62237388 -45.36223155 40.19139698 -45.328125 37.11328125 C-45.32296875 36.17419922 -45.3178125 35.23511719 -45.3125 34.26757812 C-45.291875 33.29240234 -45.27125 32.31722656 -45.25 31.3125 C-45.24484375 30.35666016 -45.2396875 29.40082031 -45.234375 28.41601562 C-45.03945609 10.5443881 -45.03945609 10.5443881 -39.5 4.3125 C-36.20219139 1.42691747 -34.28700099 0.76827022 -30 1 C-32.35953094 3.35953094 -33.77895617 3.49141413 -37 4 C-37.33 4.99 -37.66 5.98 -38 7 C-38.66 7 -39.32 7 -40 7 C-40 7.66 -40 8.32 -40 9 C-37.03 9.495 -37.03 9.495 -34 10 C-34 10.66 -34 11.32 -34 12 C-33.28457031 12.27585937 -32.56914063 12.55171875 -31.83203125 12.8359375 C-29.04261145 13.98248522 -26.37709642 15.26227115 -23.6875 16.625 C-22.80449219 17.07101563 -21.92148438 17.51703125 -21.01171875 17.9765625 C-20.01591797 18.48316406 -20.01591797 18.48316406 -19 19 C-19 19.66 -19 20.32 -19 21 C-13.42499351 21.58072984 -10.69885442 20.57671478 -6.11328125 17.43359375 C-3.90760655 15.93732274 -1.65161364 14.65123281 0.6875 13.375 C3.83476795 11.64890322 6.93878056 9.87623127 10 8 C7.4699315 5.90365753 5.00854435 4.00512661 2.1875 2.3125 C1.465625 1.879375 0.74375 1.44625 0 1 C0 0.67 0 0.34 0 0 Z M-43 11 C-43.17395523 15.01970396 -43.30047689 19.03793237 -43.38452148 23.06054688 C-43.41957479 24.42649521 -43.46723632 25.79218366 -43.52807617 27.15722656 C-44.10637885 35.00922906 -44.10637885 35.00922906 -41.59301758 42.19384766 C-38.42238438 45.023585 -34.84688948 46.80372141 -30.8125 48.125 C-26.90432288 49.53383006 -24.89409604 51.00254339 -22 54 C-20.0107366 54.39235472 -18.00968252 54.73113707 -16 55 C-15.87633445 50.92512506 -15.78563524 46.85097699 -15.7253418 42.7746582 C-15.70020781 41.38839696 -15.66609408 40.00226813 -15.62280273 38.61645508 C-15.56211604 36.62378963 -15.53645121 34.63015467 -15.51171875 32.63671875 C-15.48553467 31.43748779 -15.45935059 30.23825684 -15.43237305 29.00268555 C-15.69930922 25.82674843 -15.69930922 25.82674843 -18.34301758 24.08520508 C-20.98453698 22.81094362 -20.98453698 22.81094362 -24 23 C-24.33 22.01 -24.66 21.02 -25 20 C-27.30368736 18.93347808 -29.64018187 17.93578995 -32 17 C-32.99 16.34 -33.98 15.68 -35 15 C-35.99 15 -36.98 15 -38 15 C-38.33 14.01 -38.66 13.02 -39 12 C-41.01508358 11.26676204 -41.01508358 11.26676204 -43 11 Z M9 13 C9 13.66 9 14.32 9 15 C8.39671875 15.18175781 7.7934375 15.36351563 7.171875 15.55078125 C2.85955371 16.90707585 -0.45833591 18.14381928 -4 21 C-7.96 22.98 -7.96 22.98 -12 25 C-12 34.9 -12 44.8 -12 55 C-5.45706149 52.3828246 0.67370448 49.13535742 6.875 45.8125 C10.401875 43.9253125 10.401875 43.9253125 14 42 C14 32.1 14 22.2 14 12 C11.78918149 11.89459074 11.78918149 11.89459074 9 13 Z " fill="#FBF2B2" transform="translate(88,49)"/>
<path d="M0 0 C4.45474658 0.5100362 7.21668763 1.49700618 10.875 4.0625 C15.38786159 7.06291001 19.95118721 9.57264719 24.8125 11.9375 C32.40126128 15.64420677 39.76351641 19.63978964 47 24 C48.03632568 24.56598907 49.07265137 25.13197815 50.14038086 25.71511841 C53 28 53 28 53.78881836 30.94625854 C53.80565674 32.09176178 53.82249512 33.23726501 53.83984375 34.41748047 C53.87166748 35.71918182 53.90349121 37.02088318 53.9362793 38.36203003 C53.93881408 39.78041365 53.93916736 41.1988026 53.9375 42.6171875 C53.95170803 44.07684498 53.96710675 45.53649131 53.98364258 46.99612427 C54.01052416 50.05453529 54.01367646 53.11191413 54.00195312 56.17041016 C53.99016711 60.08174018 54.05127683 63.98809805 54.13218689 67.89846611 C54.18401876 70.91340573 54.18969016 73.92715447 54.18240356 76.94247818 C54.18578044 78.38342909 54.20501595 79.82443664 54.24069214 81.2649498 C54.3381194 85.68576029 54.27569906 89.75006921 53 94 C50.02109404 97.00249876 46.906691 98.48347324 43 100 C41.91948364 100.57450394 41.91948364 100.57450394 40.81713867 101.16061401 C38.50021604 102.23086386 37.35284173 101.84030062 35 101 C38.7924658 96.73347598 42.67233976 94.10519025 48 92 C48.66 92 49.32 92 50 92 C50 72.53 50 53.06 50 33 C42.0576953 36.92803158 42.0576953 36.92803158 34.5 41.3125 C30.22166247 44 30.22166247 44 28 44 C27.67 43.01 27.34 42.02 27 41 C40.6332574 32.55353075 40.6332574 32.55353075 47 29 C45.87335938 28.45085938 44.74671875 27.90171875 43.5859375 27.3359375 C38.82042554 24.95213323 34.22389023 22.31316856 29.625 19.625 C28.36937256 18.89482666 28.36937256 18.89482666 27.08837891 18.14990234 C22.08277243 15.23377875 17.09838429 12.28583365 12.15234375 9.26953125 C9.07032142 7.45164149 5.90019552 5.80484516 2.71484375 4.17578125 C1 3 1 3 0 0 Z " fill="#4E4E4E" transform="translate(78,13)"/>
<path d="M0 0 C0.33 0 0.66 0 1 0 C0.99887207 0.85231201 0.99774414 1.70462402 0.99658203 2.58276367 C1.0065379 5.76106667 1.04318569 8.93765071 1.09765625 12.11547852 C1.11576598 13.48777528 1.12339381 14.86025367 1.12011719 16.23266602 C0.83339442 23.90623479 0.83339442 23.90623479 3.21337891 30.96899414 C6.0572763 33.45181243 9.57710616 34.86689314 13.125 36.0625 C17.04337041 37.50118525 19.09392431 38.99013589 22 42 C23.9892634 42.39235472 25.99031748 42.73113707 28 43 C28.09087891 41.24623047 28.09087891 41.24623047 28.18359375 39.45703125 C28.26804034 37.90884386 28.35268625 36.36066732 28.4375 34.8125 C28.47681641 34.04357422 28.51613281 33.27464844 28.55664062 32.48242188 C28.77507034 28.56748925 29.08692108 24.82879312 30 21 C30.33 21 30.66 21 31 21 C31 28.92 31 36.84 31 45 C32.65 45 34.3 45 36 45 C36.04125 44.401875 36.0825 43.80375 36.125 43.1875 C37.47334945 39.81662637 39.70347841 39.47775106 43 38 C45.8808646 36.4216108 48.74508209 34.81526129 51.609375 33.20703125 C54 32 54 32 56 32 C55.67 33.32 55.34 34.64 55 36 C54.01 36 53.02 36 52 36 C52 36.66 52 37.32 52 38 C50.20703125 39.4375 50.20703125 39.4375 47.8125 41 C47.03519531 41.515625 46.25789063 42.03125 45.45703125 42.5625 C43 44 43 44 40.32421875 45.0625 C37.85817568 45.88098611 37.85817568 45.88098611 36 48 C33.875 48.625 33.875 48.625 32 49 C32 48.34 32 47.68 32 47 C31.12472656 47.22171875 30.24945313 47.4434375 29.34765625 47.671875 C25.3359899 48.06508384 23.85613374 47.29242698 20.4375 45.25 C19.52871094 44.71890625 18.61992188 44.1878125 17.68359375 43.640625 C16.35521484 42.82851562 16.35521484 42.82851562 15 42 C14.06285156 41.49984375 13.12570313 40.9996875 12.16015625 40.484375 C11.09087891 39.74960938 11.09087891 39.74960938 10 39 C10 38.01 10 37.02 10 36 C8.741875 35.9175 7.48375 35.835 6.1875 35.75 C3.3540549 35.56420032 2.35320856 35.38078705 0.39282227 33.26733398 C-1.23197556 30.62237388 -1.36223155 29.19139698 -1.328125 26.11328125 C-1.32296875 25.17419922 -1.3178125 24.23511719 -1.3125 23.26757812 C-1.291875 22.29240234 -1.27125 21.31722656 -1.25 20.3125 C-1.24484375 19.35666016 -1.2396875 18.40082031 -1.234375 17.41601562 C-1.17034188 11.54497875 -0.74364758 5.82324036 0 0 Z " fill="#FDF8D8" transform="translate(44,60)"/>
<path d="M0 0 C2.52643133 1.0475447 3.88783946 1.92265598 5.5625 4.0625 C4.9025 4.0625 4.2425 4.0625 3.5625 4.0625 C3.2325 4.7225 2.9025 5.3825 2.5625 6.0625 C1.8509375 5.84215088 1.139375 5.62180176 0.40625 5.39477539 C-3.27191498 4.96500354 -4.75059364 5.90940914 -7.9375 7.74609375 C-8.98357422 8.34043213 -10.02964844 8.93477051 -11.10742188 9.54711914 C-12.20634766 10.19156982 -13.30527344 10.83602051 -14.4375 11.5 C-15.56220703 12.14509521 -16.68691406 12.79019043 -17.84570312 13.45483398 C-24.58087258 17.33574626 -31.25563849 21.30458256 -37.83203125 25.44921875 C-41.06354881 27.45014342 -44.37374063 29.27356646 -47.73046875 31.0546875 C-49.60981698 32.06854069 -49.60981698 32.06854069 -51.4375 34.0625 C-54.0625 33.6875 -54.0625 33.6875 -56.4375 33.0625 C-55.28490312 29.60470936 -54.84912663 29.43848864 -51.7890625 27.79296875 C-50.6594812 27.17651489 -50.6594812 27.17651489 -49.50708008 26.54760742 C-48.29701294 25.90529175 -48.29701294 25.90529175 -47.0625 25.25 C-45.83599731 24.5835144 -45.83599731 24.5835144 -44.5847168 23.90356445 C-42.20735548 22.6135471 -39.82397474 21.33556389 -37.4375 20.0625 C-29.81910592 16.0655596 -29.81910592 16.0655596 -22.625 11.375 C-19.62375608 9.19762696 -16.7574736 7.68993804 -13.4375 6.0625 C-11.77064637 4.97945435 -10.10399591 3.89609599 -8.4375 2.8125 C-5.19591079 0.8480482 -3.85290723 0.07005286 0 0 Z " fill="#545454" transform="translate(74.4375,8.9375)"/>
<path d="M0 0 C0 9.9 0 19.8 0 30 C-6.9375 33.6875 -6.9375 33.6875 -9.19189453 34.88549805 C-13.62446826 37.24811631 -18.0161327 39.67029398 -22.36328125 42.1875 C-24 43 -24 43 -26 43 C-26 33.1 -26 23.2 -26 13 C-7.66666667 3 -7.66666667 3 -5 3 C-5 2.34 -5 1.68 -5 1 C-2 0 -2 0 0 0 Z M-5 3 C-5.99 4.485 -5.99 4.485 -7 6 C-9.375 7.0625 -9.375 7.0625 -12 8 C-13.34050052 8.65213539 -14.67661368 9.31379969 -16 10 C-16 10.66 -16 11.32 -16 12 C-17.7015625 12.4640625 -17.7015625 12.4640625 -19.4375 12.9375 C-22.78775099 13.62924531 -22.78775099 13.62924531 -24 15 C-24.08737645 16.85369611 -24.10698153 18.71067541 -24.09765625 20.56640625 C-24.09443359 21.69111328 -24.09121094 22.81582031 -24.08789062 23.97460938 C-24.07951172 25.15861328 -24.07113281 26.34261719 -24.0625 27.5625 C-24.05798828 28.75037109 -24.05347656 29.93824219 -24.04882812 31.16210938 C-24.03699675 34.10812226 -24.02051287 37.05403681 -24 40 C-17.98778568 38.47496762 -17.98778568 38.47496762 -13 35 C-12.7525 34.34 -12.505 33.68 -12.25 33 C-10.43484002 30.09574404 -8.01233043 29.88544716 -4.77734375 29.1015625 C-2.7324396 28.10626623 -2.7324396 28.10626623 -2.2578125 25.515625 C-1.92973402 21.04182753 -1.8936064 16.60890007 -1.9375 12.125 C-1.94201172 11.24585937 -1.94652344 10.36671875 -1.95117188 9.4609375 C-1.96287663 7.30726197 -1.98080931 5.15362183 -2 3 C-2.99 3 -3.98 3 -5 3 Z " fill="#EED75F" transform="translate(102,61)"/>
<path d="M0 0 C0.99 0 1.98 0 3 0 C3 21.45 3 42.9 3 65 C0.28261712 62.28261712 0.72662064 60.79392676 0.68115234 56.98974609 C0.66128265 55.72858978 0.64141296 54.46743347 0.62094116 53.1680603 C0.60906386 51.78652115 0.59740105 50.40498014 0.5859375 49.0234375 C0.5672329 47.61380876 0.54766002 46.20419129 0.5272522 44.79458618 C0.47584988 41.08254638 0.43626781 37.37047023 0.39910889 33.65826416 C0.35911978 29.87104241 0.30800429 26.08397285 0.2578125 22.296875 C0.16095743 14.86468762 0.07658363 7.43242683 0 0 Z " fill="#404040" transform="translate(128,41)"/>
<path d="M0 0 C2.475 0.99 2.475 0.99 5 2 C5 2.66 5 3.32 5 4 C5.556875 4.103125 6.11375 4.20625 6.6875 4.3125 C9.44998593 5.1337796 11.54311148 6.50189725 14 8 C15.65369357 8.69822617 17.31727014 9.37498605 19 10 C19 10.66 19 11.32 19 12 C14.51417989 11.57945436 11.59457712 9.62878124 7.96484375 7.15625 C5.77637603 5.74363662 5.77637603 5.74363662 2 5 C2.33 13.25 2.66 21.5 3 30 C4.98 30.33 6.96 30.66 9 31 C9 31.66 9 32.32 9 33 C9.66 33 10.32 33 11 33 C11 33.66 11 34.32 11 35 C7.21822934 34.66631435 4.16172138 33.5093663 1.26123047 31.01293945 C-1.75538793 26.19837911 -0.58340482 19.67745959 -0.375 14.1875 C-0.34488122 12.81320906 -0.31750872 11.43885501 -0.29296875 10.06445312 C-0.22230722 6.70803031 -0.12367705 3.35481935 0 0 Z " fill="#ECD668" transform="translate(45,60)"/>
<path d="M0 0 C4.43675683 0.69324326 9.14139947 1.61992865 13 4 C14 7.1875 14 7.1875 14 10 C14.99 10.33 15.98 10.66 17 11 C16.8816491 15.07530467 16.75739376 19.15038235 16.62768555 23.2253418 C16.58439782 24.61135983 16.54271836 25.99742906 16.50268555 27.38354492 C16.44483416 29.37691798 16.38070224 31.37010565 16.31640625 33.36328125 C16.27974854 34.56251221 16.24309082 35.76174316 16.20532227 36.99731445 C16 40 16 40 15 43 C14.01 42.67 13.02 42.34 12 42 C12.66 42 13.32 42 14 42 C14 31.77 14 21.54 14 11 C12.35 11.33 10.7 11.66 9 12 C9.99 10.35 10.98 8.7 12 7 C11.14148438 6.82984375 11.14148438 6.82984375 10.265625 6.65625 C7.76874494 5.93301578 5.93856487 4.89419688 3.75 3.5 C3.04359375 3.0565625 2.3371875 2.613125 1.609375 2.15625 C1.07828125 1.7746875 0.5471875 1.393125 0 1 C0 0.67 0 0.34 0 0 Z " fill="#FCF5C4" transform="translate(88,49)"/>
<path d="M0 0 C3.07536854 0.65900754 5.07735566 1.53867783 8 3 C8 12.57 8 22.14 8 32 C1.75599198 30.959332 0.44979579 30.06285702 -4 26 C-5.32491874 24.9888778 -6.65434813 23.98336098 -8 23 C-5.6568787 23.25561323 -3.32156597 23.59270772 -1 24 C-0.67 24.66 -0.34 25.32 0 26 C3.02934491 26.65772428 3.02934491 26.65772428 6 27 C5.97705833 23.6235264 5.8995634 20.25038095 5.8125 16.875 C5.80669922 15.92367187 5.80089844 14.97234375 5.79492188 13.9921875 C5.59422784 7.56997832 4.7029649 4.45544043 0 0 Z " fill="#EBD669" transform="translate(64,72)"/>
<path d="M0 0 C0 0.66 0 1.32 0 2 C-0.66 2 -1.32 2 -2 2 C-2.0825 2.61875 -2.165 3.2375 -2.25 3.875 C-3 6 -3 6 -5.0625 7.25 C-6.0215625 7.62125 -6.0215625 7.62125 -7 8 C-7 8.99 -7 9.98 -7 11 C-5.35 11.33 -3.7 11.66 -2 12 C-1.67 12.99 -1.34 13.98 -1 15 C1.97 15.495 1.97 15.495 5 16 C5.33 16.99 5.66 17.98 6 19 C-4.09117362 15.90009699 -4.09117362 15.90009699 -8 13 C-8 12.34 -8 11.68 -8 11 C-10.97 10.505 -10.97 10.505 -14 10 C-14 9.34 -14 8.68 -14 8 C-10.8000997 4.98295115 -8.38462134 3.50109958 -4 3 C-4 2.34 -4 1.68 -4 1 C-2 0 -2 0 0 0 Z " fill="#EDD760" transform="translate(62,48)"/>
<path d="M0 0 C4.69002545 0.51038512 7.61451359 1.72884977 11.5 4.375 C15.92831565 7.32988449 15.92831565 7.32988449 20.625 9.8125 C23 11 23 11 24 13 C18.69137381 12.50210604 14.95279316 11.22795735 10.3125 8.625 C9.21550781 8.01914062 8.11851563 7.41328125 6.98828125 6.7890625 C4.50787395 5.30406048 2.17891484 3.89793555 0 2 C0 1.34 0 0.68 0 0 Z " fill="#494949" transform="translate(78,13)"/>
<path d="M0 0 C0.66 0.33 1.32 0.66 2 1 C2 20.8 2 40.6 2 61 C2.66 61.33 3.32 61.66 4 62 C4 62.99 4 63.98 4 65 C2.02 64.34 0.04 63.68 -2 63 C-1.34 62.01 -0.68 61.02 0 60 C0.29092197 57.27022796 0.29092197 57.27022796 0.22705078 54.15161133 C0.22689972 52.9505928 0.22674866 51.74957428 0.22659302 50.51216125 C0.21627045 49.21521835 0.20594788 47.91827545 0.1953125 46.58203125 C0.19158155 45.24110627 0.18873497 43.90017856 0.18673706 42.55924988 C0.17910699 39.03285167 0.15946403 35.50661866 0.1373291 31.98028564 C0.1168571 28.38076004 0.10773245 24.78120769 0.09765625 21.18164062 C0.07621745 14.12102624 0.04208913 7.06052391 0 0 Z " fill="#6D6D6D" transform="translate(19,45)"/>
<path d="M0 0 C0.99 0.66 1.98 1.32 3 2 C-15.61269966 15.12988891 -15.61269966 15.12988891 -24 16 C-24.99 15.67 -25.98 15.34 -27 15 C-27.33 14.01 -27.66 13.02 -28 12 C-27.16855469 11.93941406 -26.33710937 11.87882812 -25.48046875 11.81640625 C-24.39378906 11.73261719 -23.30710937 11.64882812 -22.1875 11.5625 C-21.10855469 11.48128906 -20.02960938 11.40007812 -18.91796875 11.31640625 C-15.94010095 11.09787539 -15.94010095 11.09787539 -13 10 C-13 9.34 -13 8.68 -13 8 C-4.738041 3.59225513 -4.738041 3.59225513 0 3 C0 2.01 0 1.02 0 0 Z " fill="#EBD86D" transform="translate(96,55)"/>
<path d="M0 0 C0.86625 0.309375 1.7325 0.61875 2.625 0.9375 C2.625 1.9275 2.625 2.9175 2.625 3.9375 C3.305625 4.185 3.98625 4.4325 4.6875 4.6875 C8.19365083 6.17947908 11.34120368 8.00585511 14.625 9.9375 C11.14023541 11.0990882 9.95251629 10.71419581 6.5 9.6875 C5.61054687 9.43484375 4.72109375 9.1821875 3.8046875 8.921875 C3.08539063 8.59703125 2.36609375 8.2721875 1.625 7.9375 C1.295 6.9475 0.965 5.9575 0.625 4.9375 C-1.26642984 2.48755442 -1.26642984 2.48755442 -4.375 0.9375 C-7.77901022 0.89586073 -11.02868375 1.33971147 -14.375 1.9375 C-9.61318707 -3.04075897 -6.3962673 -2.01363971 0 0 Z " fill="#F0D75F" transform="translate(81.375,44.0625)"/>
<path d="M0 0 C1.52519276 0.08937803 3.04681929 0.24537146 4.5625 0.4375 C5.38878906 0.53933594 6.21507813 0.64117187 7.06640625 0.74609375 C7.70449219 0.82988281 8.34257813 0.91367187 9 1 C9 1.66 9 2.32 9 3 C10.423125 2.9071875 10.423125 2.9071875 11.875 2.8125 C12.90625 2.874375 13.9375 2.93625 15 3 C17 6 17 6 17 9 C15.68 8.67 14.36 8.34 13 8 C13 7.01 13 6.02 13 5 C11.700625 4.7834375 11.700625 4.7834375 10.375 4.5625 C7 4 7 4 4.125 3.125 C-0.01857623 2.95925695 -1.96110548 4.52078626 -5.265625 6.87109375 C-7 8 -7 8 -9 8 C-8.9375 6.1875 -8.9375 6.1875 -8 4 C-4.5 2.3125 -4.5 2.3125 -1 1 C-0.67 0.67 -0.34 0.34 0 0 Z " fill="#FDF9CC" transform="translate(71,40)"/>
<path d="M0 0 C0.33 0 0.66 0 1 0 C1.0289337 3.79165074 1.04677601 7.58327327 1.0625 11.375 C1.07087891 12.45523438 1.07925781 13.53546875 1.08789062 14.6484375 C1.09111328 15.6796875 1.09433594 16.7109375 1.09765625 17.7734375 C1.10289307 18.72653809 1.10812988 19.67963867 1.11352539 20.66162109 C1 23 1 23 0 25 C-1.65 25 -3.3 25 -5 25 C-5 24.01 -5 23.02 -5 22 C-4.01 22 -3.02 22 -2 22 C-1.93941406 20.83082031 -1.87882812 19.66164063 -1.81640625 18.45703125 C-1.73195966 16.90884386 -1.64731375 15.36066732 -1.5625 13.8125 C-1.50352539 12.65911133 -1.50352539 12.65911133 -1.44335938 11.48242188 C-1.22492966 7.56748925 -0.91307892 3.82879312 0 0 Z " fill="#FDFAC0" transform="translate(74,81)"/>
<path d="M0 0 C5.75685551 2.50529823 11.40472761 5.15149769 17 8 C17 8.66 17 9.32 17 10 C12.51417989 9.57945436 9.59457712 7.62878124 5.96484375 5.15625 C3.77637603 3.74363662 3.77637603 3.74363662 0 3 C0 7.62 0 12.24 0 17 C-0.33 17 -0.66 17 -1 17 C-1.02691685 14.54159395 -1.04679802 12.08348118 -1.0625 9.625 C-1.07087891 8.92632812 -1.07925781 8.22765625 -1.08789062 7.5078125 C-1.11328125 2.2265625 -1.11328125 2.2265625 0 0 Z " fill="#EDD65E" transform="translate(47,62)"/>
<path d="M0 0 C0.66 0.33 1.32 0.66 2 1 C1.84765625 2.796875 1.84765625 2.796875 1 5 C-1.50390625 6.703125 -1.50390625 6.703125 -4.5625 8.25 C-5.57441406 8.77078125 -6.58632813 9.2915625 -7.62890625 9.828125 C-8.41136719 10.21484375 -9.19382813 10.6015625 -10 11 C-10 10.34 -10 9.68 -10 9 C-10.99 8.67 -11.98 8.34 -13 8 C-12.39671875 7.67386719 -11.7934375 7.34773438 -11.171875 7.01171875 C-10.37265625 6.57472656 -9.5734375 6.13773438 -8.75 5.6875 C-7.96109375 5.25824219 -7.1721875 4.82898438 -6.359375 4.38671875 C-4.10272866 3.0603786 -2.06001403 1.61115776 0 0 Z " fill="#5D5D5D" transform="translate(62,14)"/>
<path d="M0 0 C2.64 1.32 5.28 2.64 8 4 C8 4.66 8 5.32 8 6 C8.99 6.33 9.98 6.66 11 7 C10.01 7 9.02 7 8 7 C8.33 7.99 8.66 8.98 9 10 C6.97954558 9.39816251 4.97888961 8.72693904 3 8 C2.67 7.34 2.34 6.68 2 6 C-0.30965848 4.94647157 -2.6429774 3.94280904 -5 3 C-3.68 2.67 -2.36 2.34 -1 2 C-1 2.66 -1 3.32 -1 4 C-0.01 4 0.98 4 2 4 C2 3.34 2 2.68 2 2 C1.34 2 0.68 2 0 2 C0 1.34 0 0.68 0 0 Z " fill="#FAEEA6" transform="translate(61,64)"/>
<path d="M0 0 C0.66 0.33 1.32 0.66 2 1 C1.8125 2.8125 1.8125 2.8125 1 5 C-1.90696599 7.14197494 -3.35521088 8 -7 8 C-7 8.66 -7 9.32 -7 10 C-9 9 -9 9 -12 7 C-10.04754815 5.80285445 -8.08785003 4.61751926 -6.125 3.4375 C-5.03445312 2.77621094 -3.94390625 2.11492187 -2.8203125 1.43359375 C-1.88960937 0.96050781 -0.95890625 0.48742187 0 0 Z " fill="#5F5F5F" transform="translate(113,112)"/>
<path d="M0 0 C-0.22265625 2.32421875 -0.22265625 2.32421875 -1 5 C-2.99609375 6.58203125 -2.99609375 6.58203125 -5.4375 7.8125 C-6.24058594 8.23144531 -7.04367188 8.65039062 -7.87109375 9.08203125 C-10 10 -10 10 -12 10 C-12.33 9.01 -12.66 8.02 -13 7 C-11.21190303 5.82786955 -9.41940875 4.66244474 -7.625 3.5 C-6.62726563 2.8503125 -5.62953125 2.200625 -4.6015625 1.53125 C-2 0 -2 0 0 0 Z " fill="#4B4D42" transform="translate(118,47)"/>
<path d="M0 0 C5.19578896 1.36080187 8.13611036 3.41210248 12 7 C12 7.33 12 7.66 12 8 C8.08833093 8.37253991 6.16363775 8.0848492 2.625 6.25 C1.75875 5.5075 0.8925 4.765 0 4 C0 2.68 0 1.36 0 0 Z " fill="#FBF3BE" transform="translate(54,95)"/>
<path d="M0 0 C0.60328125 0.17917969 1.2065625 0.35835937 1.828125 0.54296875 C-0.51150594 1.18735863 -2.22295015 1.54041499 -4.671875 1.41796875 C-7.76409301 1.57257965 -8.77245031 2.68534963 -11.171875 4.54296875 C-12.491875 4.54296875 -13.811875 4.54296875 -15.171875 4.54296875 C-15.254375 5.16171875 -15.336875 5.78046875 -15.421875 6.41796875 C-16.171875 8.54296875 -16.171875 8.54296875 -18.046875 9.85546875 C-20.171875 10.54296875 -20.171875 10.54296875 -23.171875 9.54296875 C-22.388125 9.10984375 -21.604375 8.67671875 -20.796875 8.23046875 C-17.95489125 6.65076628 -17.95489125 6.65076628 -16.171875 3.54296875 C-14.51748887 2.84638512 -12.84933182 2.18199992 -11.171875 1.54296875 C-10.305625 0.67671875 -10.305625 0.67671875 -9.421875 -0.20703125 C-6.07231959 -2.06789536 -3.58394568 -0.953792 0 0 Z " fill="#FEFCE4" transform="translate(78.171875,39.45703125)"/>
<path d="M0 0 C-0.203125 1.90625 -0.203125 1.90625 -1 4 C-3.109375 4.90625 -3.109375 4.90625 -5.75 5.5 C-10.09506049 6.61411808 -12.52619265 8.13921748 -16 11 C-18.1328125 10.609375 -18.1328125 10.609375 -20 10 C-3.73333333 0 -3.73333333 0 0 0 Z " fill="#FDF5C6" transform="translate(100,92)"/>
<path d="M0 0 C0.33 0 0.66 0 1 0 C1.12383963 4.19911597 1.21444607 8.39725816 1.2746582 12.59765625 C1.29976347 14.02557901 1.33385587 15.45337375 1.37719727 16.88085938 C1.43803678 18.93651918 1.46624551 20.99047753 1.48828125 23.046875 C1.51446533 24.28276367 1.54064941 25.51865234 1.56762695 26.79199219 C1 30 1 30 -1.53051758 32.43457031 C-2.34544678 32.95116211 -3.16037598 33.46775391 -4 34 C-4.33 33.34 -4.66 32.68 -5 32 C-4.67 31.34 -4.34 30.68 -4 30 C-3.01 30 -2.02 30 -1 30 C-0.67 20.1 -0.34 10.2 0 0 Z " fill="#FEFAE6" transform="translate(104,62)"/>
<path d="M0 0 C0.6875 1.6875 0.6875 1.6875 1 4 C0.54625 4.721875 0.0925 5.44375 -0.375 6.1875 C-2.58966939 10.02058164 -2.72467211 13.64222401 -3 18 C-3.33 18 -3.66 18 -4 18 C-4.12117188 17.28972656 -4.24234375 16.57945313 -4.3671875 15.84765625 C-4.53476562 14.92855469 -4.70234375 14.00945312 -4.875 13.0625 C-5.03742187 12.14597656 -5.19984375 11.22945312 -5.3671875 10.28515625 C-5.57601562 9.53105469 -5.78484375 8.77695312 -6 8 C-6.66 7.67 -7.32 7.34 -8 7 C-7.67 6.34 -7.34 5.68 -7 5 C-6.195625 4.87625 -5.39125 4.7525 -4.5625 4.625 C-1.84016601 4.27432836 -1.84016601 4.27432836 -0.6875 1.9375 C-0.460625 1.298125 -0.23375 0.65875 0 0 Z " fill="#FCF8E0" transform="translate(47,51)"/>
<path d="M0 0 C0 0.66 0 1.32 0 2 C-0.66 2 -1.32 2 -2 2 C-2.1546875 2.928125 -2.1546875 2.928125 -2.3125 3.875 C-3 6 -3 6 -6 8 C-6.66 7.34 -7.32 6.68 -8 6 C-8.66 7.65 -9.32 9.3 -10 11 C-11.32 10.67 -12.64 10.34 -14 10 C-14 9.34 -14 8.68 -14 8 C-10.8000997 4.98295115 -8.38462134 3.50109958 -4 3 C-4 2.34 -4 1.68 -4 1 C-2 0 -2 0 0 0 Z " fill="#F4DA65" transform="translate(62,48)"/>
<path d="M0 0 C0 9.9 0 19.8 0 30 C-1.32 30.33 -2.64 30.66 -4 31 C-3.67 30.34 -3.34 29.68 -3 29 C-2.34 29 -1.68 29 -1 29 C-1 20.42 -1 11.84 -1 3 C-2.32 3 -3.64 3 -5 3 C-5 2.34 -5 1.68 -5 1 C-2 0 -2 0 0 0 Z " fill="#E3D572" transform="translate(102,61)"/>
<path d="M0 0 C-1.21918383 3.6575515 -2.84071298 4.42328869 -6.14453125 6.21484375 C-8.51473693 7.217815 -10.45898646 7.30800164 -13 7 C-6.36842105 0 -6.36842105 0 0 0 Z " fill="#494949" transform="translate(52,23)"/>
<path d="M0 0 C-5.86516854 4.88764045 -5.86516854 4.88764045 -9 6 C-11.25 5.625 -11.25 5.625 -13 5 C-6.82677903 -1.33567416 -6.82677903 -1.33567416 0 0 Z " fill="#4D4D4D" transform="translate(126,109)"/>
<path d="M0 0 C-0.33 0.99 -0.66 1.98 -1 3 C-1.33 3 -1.66 3 -2 3 C-2.33 11.58 -2.66 20.16 -3 29 C-2.01 29.33 -1.02 29.66 0 30 C-1.32 30.33 -2.64 30.66 -4 31 C-4 21.1 -4 11.2 -4 1 C-2 0 -2 0 0 0 Z " fill="#E8D872" transform="translate(80,73)"/>
<path d="M0 0 C0.33 0.66 0.66 1.32 1 2 C1.66 2.33 2.32 2.66 3 3 C-1.66804118 6.62011357 -5.2392897 8.70677932 -11 10 C-10.67 9.01 -10.34 8.02 -10 7 C-8.35 6.67 -6.7 6.34 -5 6 C-4.9175 5.38125 -4.835 4.7625 -4.75 4.125 C-4 2 -4 2 -1.9375 0.75 C-1.298125 0.5025 -0.65875 0.255 0 0 Z " fill="#5B5B5B" transform="translate(84,129)"/>
<path d="M0 0 C2.475 0.99 2.475 0.99 5 2 C4.01 2.66 3.02 3.32 2 4 C1.48987435 6.61196291 1.48987435 6.61196291 1.48828125 9.6640625 C1.45283203 10.78554687 1.41738281 11.90703125 1.38085938 13.0625 C1.35830078 14.238125 1.33574219 15.41375 1.3125 16.625 C1.27833984 17.80835937 1.24417969 18.99171875 1.20898438 20.2109375 C1.12629425 23.1405306 1.05721286 26.0698164 1 29 C0.67 29 0.34 29 0 29 C0 19.43 0 9.86 0 0 Z " fill="#EBDB89" transform="translate(45,60)"/>
<path d="M0 0 C-2.35953094 2.35953094 -3.77895617 2.49141413 -7 3 C-7.33 3.99 -7.66 4.98 -8 6 C-8.66 6 -9.32 6 -10 6 C-10 6.66 -10 7.32 -10 8 C-9.34 8 -8.68 8 -8 8 C-8 8.66 -8 9.32 -8 10 C-8.99 10.33 -9.98 10.66 -11 11 C-11.66 10.34 -12.32 9.68 -13 9 C-10.28233061 2.5634146 -7.25122176 -0.62153329 0 0 Z " fill="#FDF6C2" transform="translate(58,50)"/>
<path d="M0 0 C0.86625 0.309375 1.7325 0.61875 2.625 0.9375 C2.295 1.9275 1.965 2.9175 1.625 3.9375 C-3.25 2.0625 -3.25 2.0625 -4.375 0.9375 C-6.06641656 1.02713062 -7.75459602 1.18327676 -9.4375 1.375 C-10.35660156 1.47683594 -11.27570313 1.57867187 -12.22265625 1.68359375 C-13.28806641 1.80927734 -13.28806641 1.80927734 -14.375 1.9375 C-9.61318707 -3.04075897 -6.3962673 -2.01363971 0 0 Z " fill="#F0E286" transform="translate(81.375,44.0625)"/>
<path d="M0 0 C-0.75 4.75 -0.75 4.75 -3 7 C-5.625 6.625 -5.625 6.625 -8 6 C-6.72879117 2.18637351 -4.19078006 0 0 0 Z " fill="#5B5B5B" transform="translate(26,36)"/>
<path d="M0 0 C3.37462715 0.54723683 5.08235 1.0549 8 3 C8 3.99 8 4.98 8 6 C5.125 5.8125 5.125 5.8125 2 5 C0.625 2.4375 0.625 2.4375 0 0 Z " fill="#4F4F4F" transform="translate(22,107)"/>
<path d="M0 0 C2.92879371 0.62759865 5.36095629 1.58622659 8 3 C8 3.99 8 4.98 8 6 C5.61435923 5.42415568 3.33317216 4.77772405 1 4 C0.3125 1.9375 0.3125 1.9375 0 0 Z " fill="#474747" transform="translate(43,119)"/>
<path d="M0 0 C0.33 0 0.66 0 1 0 C1 3.3 1 6.6 1 10 C-0.98 9.01 -2.96 8.02 -5 7 C-4.01 6.34 -3.02 5.68 -2 5 C-0.79549696 2.44816596 -0.79549696 2.44816596 0 0 Z " fill="#E9E9E9" transform="translate(71,124)"/>
<path d="M0 0 C1.1446875 0.2784375 1.1446875 0.2784375 2.3125 0.5625 C5.08967375 1.22819173 5.08967375 1.22819173 8 0 C7.67 1.65 7.34 3.3 7 5 C4.69 4.34 2.38 3.68 0 3 C0 2.01 0 1.02 0 0 Z " fill="#F6F2F3" transform="translate(72,107)"/>
<path d="M0 0 C0.33 0.99 0.66 1.98 1 3 C-2.13498292 4.85776765 -4.37471432 5.20140476 -8 5 C-8 4.34 -8 3.68 -8 3 C-2.25 0 -2.25 0 0 0 Z " fill="#4A4A4A" transform="translate(130,104)"/>
<path d="M0 0 C3.32104626 0.55350771 6.16244492 1.14091219 9 3 C10.25 5.125 10.25 5.125 11 7 C9.66666667 6.33333333 8.33333333 5.66666667 7 5 C5.948125 4.505 4.89625 4.01 3.8125 3.5 C1 2 1 2 0 0 Z " fill="#FAF2B4" transform="translate(88,49)"/>
<path d="M0 0 C-0.33 0.66 -0.66 1.32 -1 2 C-2.65 2 -4.3 2 -6 2 C-6 2.66 -6 3.32 -6 4 C-6.66 4 -7.32 4 -8 4 C-8.66 2.68 -9.32 1.36 -10 0 C-3.375 -1.125 -3.375 -1.125 0 0 Z " fill="#3F3F3F" transform="translate(80,134)"/>
<path d="M0 0 C2 1.375 2 1.375 4 3 C4 3.66 4 4.32 4 5 C4.33 5.66 4.66 6.32 5 7 C1.66666667 5.33333333 -1.66666667 3.66666667 -5 2 C-4.360625 1.855625 -3.72125 1.71125 -3.0625 1.5625 C-1.02454854 1.18992819 -1.02454854 1.18992819 0 0 Z " fill="#E1E1E1" transform="translate(126,34)"/>
<path d="M0 0 C2.31 0.33 4.62 0.66 7 1 C7 1.66 7 2.32 7 3 C7.66 3 8.32 3 9 3 C9 3.66 9 4.32 9 5 C8.01 5 7.02 5 6 5 C6 4.34 6 3.68 6 3 C5.195625 2.87625 4.39125 2.7525 3.5625 2.625 C2.716875 2.41875 1.87125 2.2125 1 2 C0.67 1.34 0.34 0.68 0 0 Z " fill="#FEF6C1" transform="translate(54,63)"/>
<path d="M0 0 C0.66 0.33 1.32 0.66 2 1 C1.2890625 2.953125 1.2890625 2.953125 0 5 C-2.1640625 5.609375 -2.1640625 5.609375 -4.625 5.75 C-5.44226563 5.80671875 -6.25953125 5.8634375 -7.1015625 5.921875 C-7.72804688 5.94765625 -8.35453125 5.9734375 -9 6 C-6 4 -3 2 0 0 Z " fill="#E6E6E6" transform="translate(115,115)"/>
<path d="M0 0 C0.66 0.33 1.32 0.66 2 1 C0.76265016 2.03613033 -0.49044637 3.05347802 -1.75 4.0625 C-2.79414062 4.91521484 -2.79414062 4.91521484 -3.859375 5.78515625 C-6 7 -6 7 -8.265625 6.68359375 C-8.83796875 6.45800781 -9.4103125 6.23242188 -10 6 C-8.3811004 4.96951963 -6.75467511 3.95085322 -5.125 2.9375 C-4.22007813 2.36902344 -3.31515625 1.80054687 -2.3828125 1.21484375 C-1.20332031 0.61349609 -1.20332031 0.61349609 0 0 Z " fill="#F8ECAF" transform="translate(90,96)"/>
<path d="M0 0 C-1.28813342 0.83878455 -2.58063256 1.67086783 -3.875 2.5 C-4.59429687 2.9640625 -5.31359375 3.428125 -6.0546875 3.90625 C-8 5 -8 5 -10 5 C-9.875 3.125 -9.875 3.125 -9 1 C-5.3931275 -0.64661571 -3.8148779 -1.27162597 0 0 Z " fill="#FBF2BA" transform="translate(72,43)"/>
<path d="M0 0 C-1.32 1.32 -2.64 2.64 -4 4 C-4.99 3.67 -5.98 3.34 -7 3 C-6.67 2.01 -6.34 1.02 -6 0 C-3.50907189 -1.24546405 -2.58919267 -0.7767578 0 0 Z " fill="#4A4A4A" transform="translate(32,35)"/>
<path d="M0 0 C0.33 0.66 0.66 1.32 1 2 C1.66 2.33 2.32 2.66 3 3 C1.54735962 3.8638129 0.0876837 4.71580454 -1.375 5.5625 C-2.59316406 6.27599609 -2.59316406 6.27599609 -3.8359375 7.00390625 C-4.55007812 7.33261719 -5.26421875 7.66132813 -6 8 C-6.66 7.67 -7.32 7.34 -8 7 C-8 6.34 -8 5.68 -8 5 C-6.8553125 4.87625 -6.8553125 4.87625 -5.6875 4.75 C-2.47626739 3.85384206 -1.70625501 2.78388975 0 0 Z " fill="#DBDBDB" transform="translate(43,22)"/>
<path d="M0 0 C3.3 1.65 6.6 3.3 10 5 C4.79069767 6.30232558 4.79069767 6.30232558 2 5 C1.34 3.35 0.68 1.7 0 0 Z " fill="#FEF9D4" transform="translate(44,90)"/>
<path d="M0 0 C2.475 0.495 2.475 0.495 5 1 C5.33 2.65 5.66 4.3 6 6 C3.00306862 5.00102287 1.97290587 4.34869747 0 2 C0 1.34 0 0.68 0 0 Z " fill="#F6D936" transform="translate(61,72)"/>
<path d="M0 0 C-0.66 2.97 -1.32 5.94 -2 9 C-3.33333333 6.33333333 -4.66666667 3.66666667 -6 1 C-3 0 -3 0 0 0 Z " fill="#EAE8E4" transform="translate(45,55)"/>
<path d="M0 0 C0.99 0.33 1.98 0.66 3 1 C2.01 1.66 1.02 2.32 0 3 C-0.72382467 5.05925139 -0.72382467 5.05925139 -1 7 C-2.32 6.67 -3.64 6.34 -5 6 C-5 5.34 -5 4.68 -5 4 C-2.6875 1.8125 -2.6875 1.8125 0 0 Z " fill="#ECDF86" transform="translate(53,52)"/>
<path d="M0 0 C0.99 0.33 1.98 0.66 3 1 C1.71034824 2.37562854 0.37310707 3.70766393 -1 5 C-1.66 5 -2.32 5 -3 5 C-3.33 6.32 -3.66 7.64 -4 9 C-4.25 6.75 -4.25 6.75 -4 4 C-2 1.6875 -2 1.6875 0 0 Z " fill="#ECECEC" transform="translate(19,36)"/>
<path d="M0 0 C-0.33 0.99 -0.66 1.98 -1 3 C-1.66 3 -2.32 3 -3 3 C-3.33 3.66 -3.66 4.32 -4 5 C-7.0625 5.625 -7.0625 5.625 -10 6 C-7.35570758 3.077361 -4.105808 0 0 0 Z " fill="#DBDBDB" transform="translate(56,23)"/>
<path d="M0 0 C0.66 0.66 1.32 1.32 2 2 C-0.3125 3.5625 -0.3125 3.5625 -3 5 C-3.99 4.67 -4.98 4.34 -6 4 C-4 1 -4 1 -2 0.1875 C-1.34 0.125625 -0.68 0.06375 0 0 Z " fill="#424242" transform="translate(103,119)"/>
<path d="M0 0 C-0.33 1.65 -0.66 3.3 -1 5 C-1.99 5.33 -2.98 5.66 -4 6 C-4.99 5.01 -5.98 4.02 -7 3 C-2.25 0 -2.25 0 0 0 Z " fill="#5C5C5B" transform="translate(118,47)"/>
<path d="M0 0 C-2.35968744 2.09749995 -3.54616994 2.96905704 -6.75 3.1875 C-7.86375 3.0946875 -7.86375 3.0946875 -9 3 C-7 0 -7 0 -4.5 -0.75 C-2 -1 -2 -1 0 0 Z " fill="#424242" transform="translate(48,27)"/>
<path d="M0 0 C-1.65 1.32 -3.3 2.64 -5 4 C-5.33 3.01 -5.66 2.02 -6 1 C-6.66 0.67 -7.32 0.34 -8 0 C-5.13822943 -1.43088528 -3.06624227 -0.59991697 0 0 Z " fill="#606060" transform="translate(126,109)"/>
<path d="M0 0 C2.1875 0.3125 2.1875 0.3125 4 1 C3.34 2.32 2.68 3.64 2 5 C-0.475 4.01 -0.475 4.01 -3 3 C-1.75 1.4375 -1.75 1.4375 0 0 Z " fill="#6B6B6F" transform="translate(39,52)"/>
<path d="M0 0 C2.97 0.495 2.97 0.495 6 1 C6 1.99 6 2.98 6 4 C4.35 3.67 2.7 3.34 1 3 C0.67 2.01 0.34 1.02 0 0 Z " fill="#434343" transform="translate(78,13)"/>
<path d="M0 0 C1.32 0.66 2.64 1.32 4 2 C3.67 3.32 3.34 4.64 3 6 C1.68 5.34 0.36 4.68 -1 4 C-0.67 2.68 -0.34 1.36 0 0 Z " fill="#5F5F5F" transform="translate(30,110)"/>
<path d="M0 0 C1.32 0.66 2.64 1.32 4 2 C3.67 2.66 3.34 3.32 3 4 C3.99 4.33 4.98 4.66 6 5 C5.01 5.495 5.01 5.495 4 6 C1.375 4.5625 1.375 4.5625 -1 3 C-0.67 2.01 -0.34 1.02 0 0 Z " fill="#EAEAEA" transform="translate(30,107)"/>
<path d="M0 0 C0.86625 0.556875 0.86625 0.556875 1.75 1.125 C-1.715 2.61 -1.715 2.61 -5.25 4.125 C-5.58 3.135 -5.91 2.145 -6.25 1.125 C-2.80384615 -1.09038462 -2.80384615 -1.09038462 0 0 Z " fill="#F3F3F3" transform="translate(120.25,106.875)"/>
<path d="M0 0 C2.475 0.99 2.475 0.99 5 2 C4.34 3.32 3.68 4.64 3 6 C1.68 5.34 0.36 4.68 -1 4 C-0.67 2.68 -0.34 1.36 0 0 Z " fill="#5C5C5C" transform="translate(120,35)"/>
</svg>
