<?xml version="1.0" encoding="UTF-8"?>
<svg version="1.1" xmlns="http://www.w3.org/2000/svg" width="32" height="32">
<path d="M0 0 C0.8971875 0.309375 0.8971875 0.309375 1.8125 0.625 C4.28990178 10.18069256 4.86782405 18.40687385 0.8125 27.625 C-1.93636238 30.83200611 -3.42685577 31.48413996 -7.5625 32.25 C-11.73240276 31.53105125 -13.83214497 30.42782367 -16.85546875 27.52734375 C-18.87574192 24.64208559 -19.0361524 22.38070824 -18.734375 18.921875 C-17.15557536 12.29091649 -7.65202088 -1.31177501 0 0 Z " fill="#B0D95E" transform="translate(23.1875,0.375)"/>
<path d="M0 0 C0.33 0.99 0.66 1.98 1 3 C0.54496094 3.42112061 0.08992188 3.84224121 -0.37890625 4.27612305 C-1.9968626 5.99666367 -2.90833595 7.46987081 -3.9375 9.58203125 C-4.44410156 10.60973633 -4.44410156 10.60973633 -4.9609375 11.65820312 C-5.30382813 12.36912109 -5.64671875 13.08003906 -6 13.8125 C-6.34289063 14.51181641 -6.68578125 15.21113281 -7.0390625 15.93164062 C-7.71194473 17.30437174 -8.38258512 18.67820443 -9.05078125 20.05322266 C-10.34724231 22.71216825 -11.67209843 25.35664595 -13 28 C-15 27.0625 -15 27.0625 -17 25 C-18.10711595 20.17963675 -17.4055294 16.06208704 -14.9375 11.8125 C-11.12709426 6.40453038 -6.43214156 1.94913381 0 0 Z " fill="#B5E061" transform="translate(22,1)"/>
<path d="M0 0 C2.1875 0.3125 2.1875 0.3125 4 1 C4 2.32 4 3.64 4 5 C3.05447266 5.12761719 3.05447266 5.12761719 2.08984375 5.2578125 C-0.12700617 5.77741684 -0.12700617 5.77741684 -0.87109375 7.6796875 C-1.05800781 8.40414063 -1.24492187 9.12859375 -1.4375 9.875 C-3.48992609 16.92316653 -6.69295267 23.46210458 -10 30 C-10.66 30 -11.32 30 -12 30 C-10.08321013 23.56404235 -7.54251139 17.81539951 -4.3125 11.9375 C-3.68891602 10.78217773 -3.68891602 10.78217773 -3.05273438 9.60351562 C-2.0415352 7.732216 -1.02168617 5.86559466 0 4 C0.66 4 1.32 4 2 4 C1.67 3.34 1.34 2.68 1 2 C-0.32 2.33 -1.64 2.66 -3 3 C-1.75 1.4375 -1.75 1.4375 0 0 Z " fill="#85A83C" transform="translate(21,0)"/>
<path d="M0 0 C0.99 0.33 1.98 0.66 3 1 C2.60167969 1.45890625 2.20335937 1.9178125 1.79296875 2.390625 C-1.60015709 6.31674827 -1.60015709 6.31674827 -4.75 10.4375 C-5.1625 10.953125 -5.575 11.46875 -6 12 C-6.66 12 -7.32 12 -8 12 C-8.33 15.3 -8.66 18.6 -9 22 C-9.33 22 -9.66 22 -10 22 C-10.74162278 14.88042132 -9.48463401 10.57549093 -5 5 C-3.39998809 3.21836512 -1.77074038 1.61896263 0 0 Z " fill="#A3C958" transform="translate(15,4)"/>
</svg>
